<?xml version="1.0" standalone="no"?><!DOCTYPE svg PUBLIC "-//W3C//DTD SVG 1.1//EN" "http://www.w3.org/Graphics/SVG/1.1/DTD/svg11.dtd"><svg class="icon" width="200px" height="200.00px" viewBox="0 0 1024 1024" version="1.1" xmlns="http://www.w3.org/2000/svg"><path d="M768 469.333333 554.666667 469.333333 554.666667 256 768 256M704 725.333333C668.586667 725.333333 640 696.746667 640 661.333333 640 625.92 668.586667 597.333333 704 597.333333 739.413333 597.333333 768 625.92 768 661.333333 768 696.746667 739.413333 725.333333 704 725.333333M469.333333 469.333333 256 469.333333 256 256 469.333333 256M320 725.333333C284.586667 725.333333 256 696.746667 256 661.333333 256 625.92 284.586667 597.333333 320 597.333333 355.413333 597.333333 384 625.92 384 661.333333 384 696.746667 355.413333 725.333333 320 725.333333M512 85.333333C323.413333 85.333333 170.666667 106.666667 170.666667 256L170.666667 661.333333C170.666667 743.68 237.653333 810.666667 320 810.666667L256 874.666667 256 896 768 896 768 874.666667 704 810.666667C786.346667 810.666667 853.333333 743.68 853.333333 661.333333L853.333333 256C853.333333 106.666667 700.586667 85.333333 512 85.333333Z" fill="#ff6b37" /></svg>